<svg width="222" height="230" viewBox="0 0 222 230" fill="none" xmlns="http://www.w3.org/2000/svg">
<path d="M128.589 16.9666C135.618 16.9557 142.652 16.489 149.721 16.9103C152.464 17.0738 155.847 16.4331 158.57 16.6183C166.636 17.1669 174.36 16.7519 182.408 16.1532C185.312 15.9372 191.248 17.5238 193.661 16.8415C196.046 17.1802 200.882 17.3671 202.056 19.6465C205.865 27.0465 204.233 36.4869 204.124 44.4895C204.091 46.9295 204.54 49.0005 204.606 51.4085C204.77 56.0325 204.488 60.6115 204.854 65.2345C204.948 66.4145 205.563 68.7055 205.399 69.6925C204.509 70.5735 204.318 70.4895 204.034 71.5365C204.159 72.0455 205.055 73.8385 205.054 73.9035C204.941 82.2175 205.259 90.6335 204.19 98.8935C203.498 104.233 204.049 109.879 204.182 115.271L204.542 137.783C204.602 142.859 204.258 147.718 204.189 152.687C204.129 156.988 205.655 162.17 205.784 166.831C205.826 168.905 205.781 170.981 205.647 173.051C205.503 175.085 205.069 176.091 205.338 178.211C205.741 181.397 209.014 184.947 208.853 187.759C208.292 188.534 207.863 188.681 207.478 189.567C209.378 189.808 209.298 189.712 210.505 191.086C211.478 192.194 212.846 195.547 213.952 195.99L214.604 195.803C214.678 191.612 214.736 187.046 215.023 182.848C215.13 181.283 216.63 179.889 216.774 178.596L217.515 178.547C218.208 179.39 218.383 179.314 218.446 180.267C217.839 181.206 217.663 181.114 217.788 182.036C218.484 183.055 219.755 183.1 220.375 183.917C221.434 185.312 220.091 205.85 219.521 208.85C218.322 215.159 215.73 221.358 210.213 225.094C204.689 228.835 198.564 229.058 192.164 229.158C189.824 229.194 187.401 229.295 185.075 229.015C185.27 228.283 185.742 228.352 185.802 227.287L185.449 227.032C183.855 226.998 181.489 228.052 180.016 228.706C172.042 229.814 166.947 229.368 159.012 229.075C154.938 228.924 149.997 229.435 145.908 229.218C139.704 229.096 133.5 229.032 127.295 229.024C121.723 229.029 116.236 229.182 110.684 228.689C111.657 227.538 113.018 226.532 112.871 224.997C112.254 224.346 112.485 224.549 111.361 224.417C112.75 224.255 114.065 224.511 115.472 224.364C117.822 224.119 119.874 223.648 122.251 223.399C125.018 223.106 127.108 222.868 129.909 222.762L131.422 222.689C132.673 222.907 136.033 222.756 137.538 222.882C143.079 223.344 147.017 224.283 152.489 222.602L153.212 222.316C154.533 221.83 155.735 221.594 157.148 221.51C163.237 221.149 168.83 219.683 174.659 218.048C176.674 217.483 179.516 218.005 181.527 217.042L181.637 216.715C180.867 216.332 179.277 216.151 178.385 216.027C173.876 214.397 164.639 214.965 159.466 214.561C142 213.197 124.356 214.263 106.855 213.546C102.581 213.371 97.4283 215.533 93.3423 215.404C83.3903 215.089 73.5253 214.502 63.5593 214.982C61.1353 214.958 58.4973 214.398 56.0873 214.443C44.6883 214.658 33.6839 215.755 22.3313 213.731C19.3067 213.192 17.4777 210.917 16.9858 207.998C15.7845 200.869 17.219 193.63 16.4032 186.493C15.9555 182.255 15.5905 177.018 16.6885 172.889C17.413 170.164 17.9384 167.643 17.9118 164.814C17.8799 161.423 14.8553 162.013 14.3619 159.153C14.1612 158.021 14.5843 158.384 15.4067 157.978C19.8558 151.78 14.683 142.482 18.5275 136.568C18.0543 136.506 16.9854 136.675 16.7778 136.215C16.291 135.136 16.1486 134.052 17.3327 133.469C18.1531 133.62 18.2596 133.66 19.0746 133.574L19.3996 133.047C18.6263 130.78 19.1698 126.577 18.5244 124.089C18.2216 122.922 17.2439 123.139 17.1929 122.464C17.0442 120.495 16.9854 116.71 17.0851 114.779C17.2645 111.307 16.5089 106.993 16.6925 103.816C17.1159 96.4895 17.7242 89.5635 17.7106 82.1895C17.7033 78.2385 17.2827 74.4995 17.2426 70.6845C17.2115 67.7255 18.0295 64.0795 17.8992 60.7585C17.5423 51.6625 17.5451 42.5425 17.3869 33.4374C17.3525 31.4619 17.4412 26.7513 18.1171 25.087C19.2039 22.6308 22.8175 20.1284 25.2201 19.3177C31.451 17.2152 38.6873 16.8547 45.0053 18.7279C46.0643 19.0418 47.2573 18.7901 48.3643 19.2808C50.8763 19.2737 52.7033 18.9116 55.0603 18.1205C58.3273 15.4246 111.493 20.2806 119.375 17.4442C119.644 17.3475 127.091 17.2107 128.589 16.9666ZM73.6793 84.5795C63.1953 89.1355 57.0983 87.6355 46.5153 85.6805C47.3673 89.3235 49.9983 92.7035 50.4263 96.5955C52.0613 111.467 50.7993 126.733 48.6673 141.495C47.9913 146.176 47.3803 151.919 45.9093 156.321C45.6413 157.534 45.3593 158.402 44.9693 159.583C42.3603 167.858 38.7553 174.851 34.3952 182.278C33.7626 182.797 32.9391 184.368 32.4787 185.153L34.0966 187.328C34.6541 186.825 36.8353 184.979 37.045 184.463C47.6903 175.417 54.1043 160.747 56.8073 147.28C57.4113 144.273 58.0953 140.317 58.0783 137.259C59.5863 136.905 62.6233 139.783 64.2073 140.285C65.9773 140.846 70.8273 140.767 72.5793 140.368C74.1643 143.161 70.4673 168.139 74.1053 171.409C74.8293 171.723 76.0433 172.039 76.8083 171.681C80.2993 170.048 80.7103 152.119 80.7613 148.073C80.7933 145.544 80.2763 140.619 81.1973 138.46C81.3843 138.02 81.9073 137.862 82.3263 137.696C84.0233 137.025 85.8923 136.711 87.6373 136.166C89.8023 135.489 91.8243 134.532 93.9023 133.636C91.2143 132.089 88.7553 130.18 85.4993 129.223C84.7563 129.005 83.1663 129.256 81.8683 128.944C80.9753 127.116 81.1143 117.414 81.1153 114.824C86.6643 112.915 87.4533 113.351 92.8983 110.368C90.2983 107.242 83.1223 103.906 82.0453 100.077C82.2073 95.3085 82.8723 94.1235 79.7993 90.5975C81.3273 89.3325 86.2063 89.1315 88.3363 88.9975C91.2323 90.6305 93.6243 91.1805 96.3303 92.5755C97.6733 104.102 97.0393 116.531 97.3463 128.176C97.6563 139.934 97.8933 151.96 97.1303 163.687C96.9573 165.936 96.5733 168.229 95.0403 169.954C92.3893 170.703 89.1953 170.556 86.4333 170.504C85.8043 170.318 85.0323 170.051 84.5763 170.621C85.1523 171.944 88.7223 175.428 89.7923 176.85C92.2903 180.173 96.2713 184.406 98.4743 187.703C98.9473 187.387 99.4063 187.051 99.8503 186.696C110.995 177.816 107.208 163.853 107.693 151.398C107.957 144.602 106.67 135.781 107.415 129.337C108.766 129.529 112.896 128.915 114.237 128.531C115.308 128.268 116.801 128.511 118.239 128.347C119.001 127.52 121.118 125.639 122.102 124.667C119.087 124.312 117.786 125.456 115.793 125.327C113.524 127.517 109.707 126.134 107.508 128.646C106.124 121.676 105.749 107.33 106.456 99.9485C106.687 97.5385 108.971 91.0875 109.648 88.4125C109.883 87.4845 110.19 85.5645 109.553 84.8425C107.116 82.0775 100.585 80.5755 97.2383 79.9595C93.4283 80.3365 91.1503 81.3125 87.4893 82.2905C85.8443 82.7305 82.7673 83.0515 81.0013 83.2185C84.2873 79.8025 87.4693 76.2875 90.5423 72.6795C95.0243 67.4605 98.9393 62.3745 104.937 58.8275C105.972 58.2155 107.333 57.3065 108.28 56.5825C106.114 51.7235 96.2073 45.7335 91.4333 50.0215C89.0543 52.1585 75.3983 56.1765 72.9953 54.3965C72.2003 51.3905 81.7843 43.1845 83.7033 39.4475C79.5063 33.1977 75.7063 31.5567 68.0983 30.8111C68.0593 33.5819 67.4793 40.2615 66.5263 42.9745C62.2943 55.0295 52.3393 67.9235 43.6243 77.0775C42.2353 78.5375 40.6823 79.4395 40.1433 81.4155C40.1633 82.3135 40.5983 82.7265 41.1353 83.4765C50.6173 77.6015 58.6353 71.9055 66.0633 63.3385C66.9783 62.2835 67.6973 61.6335 68.8193 60.8385C74.0233 60.7815 78.9623 59.7845 84.1243 59.6135C85.9933 59.5515 86.8233 61.6015 86.4613 63.0015C85.0943 68.2955 78.8783 80.6635 74.6653 83.8835C74.3453 84.1275 74.0163 84.3595 73.6793 84.5795ZM60.0443 113.122C59.8243 107.837 59.7433 102.091 59.8043 96.7815C59.8133 95.9735 60.0813 94.7485 60.8083 94.3245C63.0133 93.0355 68.7913 92.3325 71.1123 92.8675C71.4893 93.7335 71.8133 93.9375 72.5453 94.4835C73.3773 96.3995 73.6093 106.399 73.1223 108.415C71.5593 110.707 61.9203 111.784 60.0443 113.122ZM73.1383 132.453C69.1263 133.563 64.3563 134.054 60.1313 135.278L59.0753 135.229L58.7413 134.789C58.5163 132.56 59.5623 116.049 59.9863 113.928C64.6313 116.166 67.9483 116.898 73.1013 117.467C73.0603 122.645 73.2993 126.972 73.1383 132.453ZM144.355 136.356C133.401 137.562 122.286 139.284 111.309 140.493C110.185 140.617 108.802 140.845 107.723 141.134C109.024 143.581 109.67 143.938 112.141 145.241C113.101 146.239 115.191 147.298 116.468 147.937C119.364 147.841 120.323 147.73 123.146 146.731C125.348 145.55 140.894 143.533 144.513 142.713C144.27 158.442 144.478 174.496 145.023 190.214C145.116 192.889 145.36 198.965 147.949 200.305C148.621 200.288 148.887 200.268 149.409 199.775C150.444 198.796 150.964 197.015 151.399 195.7C156.512 180.225 153.363 158.063 154.828 141.568C160.974 141.367 166.895 140.469 173.238 140.51C179.255 140.548 187.459 141.932 192.91 139.96C193.588 139.249 194.039 138.514 194.587 137.702C187.055 121.122 158.738 136.896 154.507 134.077C153.983 131.879 154.447 120.317 154.572 117.615C156.789 116.891 158.828 116.692 161.117 116.486C163.79 116.162 179.165 114.972 177.709 110.801C174.554 101.762 160.35 108.569 154.095 109.419C154.649 105.036 154.71 97.6065 155.662 93.7585C153.735 92.6245 148.39 89.8875 146.304 91.1745L146.242 91.7045C146.708 95.4495 145.133 95.4495 143.727 97.9625C144.214 101.16 144.379 108.095 144.276 111.586C140.528 112.543 135.614 113.231 131.751 113.415C131.171 110.32 133.521 107.568 134.475 104.513C131.257 101.104 128.44 100.183 123.647 99.4565C122.85 99.3355 122.389 99.7585 121.909 100.231C121.497 101.782 122.221 105.74 122.112 107.414C121.923 110.322 119.832 116.181 118.646 118.762C120.526 119.385 123.704 120.763 125.516 120.843C126.874 120.442 129.638 120.335 131.15 120.225C132.555 120.293 141.061 119.247 143.35 119.104L143.868 119.309C144.503 120.963 144.347 133.731 144.355 136.356ZM115.563 49.4895C121.77 58.3565 127.104 54.3375 135.665 55.2085C133.368 65.4735 129.576 73.3495 124.332 82.5075C123.059 84.7325 117.957 88.7445 117.506 90.7165C116.697 91.0385 116.317 91.9875 116.212 92.7995C117.535 95.0795 123.177 91.8155 123.767 90.3165C126.753 88.6865 131.701 83.5965 134.127 81.0985C137.32 77.3345 139.335 74.1925 141.652 69.8035C143.027 67.3275 145.896 61.9135 146.531 59.4305L146.597 59.1765C147.467 55.7835 143.808 55.8945 142.182 53.1405C143.729 52.2365 159.653 49.3635 162.233 50.2745C162.991 50.5425 163.115 50.5365 163.697 51.0765C165.615 54.7545 161.729 73.4395 156.875 75.6775C153.921 77.0395 146.958 75.4465 146.028 76.0605C147.133 78.4405 152.294 81.5325 153.31 84.5435C156.223 86.3015 159.253 88.4395 162.749 87.4955L162.945 87.2915C164.002 86.2065 166.012 84.6705 166.871 83.3525C171.561 76.1555 172.459 67.5215 174.913 59.6195C175.93 56.3435 179.113 53.0695 180.263 48.9225C176.667 45.2995 170.984 41.3495 165.92 40.3535C148.762 46.7325 133.452 47.4815 115.563 49.4895ZM201.699 65.5625C201.05 65.7835 200.691 66.4775 200.884 67.1355C201.078 67.7925 201.755 68.1815 202.421 68.0165C202.877 67.9035 203.235 67.5485 203.352 67.0925C203.47 66.6375 203.327 66.1535 202.982 65.8345C202.637 65.5145 202.144 65.4105 201.699 65.5625ZM205.395 224.792C205.038 224.21 205.025 224.14 204.48 223.757C202.846 224.389 202.441 223.614 200.953 224.433L200.944 225.423C202.603 225.838 203.892 225.608 205.395 224.792ZM43.6813 82.9725C43.5543 84.4415 44.1733 84.5675 45.3433 85.3175C45.0093 84.0605 45.0493 83.3515 43.6813 82.9725Z" fill="#AC371E"/>
<path d="M129.913 222.76L131.426 222.688C130.845 223.121 130.201 223.751 129.896 224.41C129.04 226.254 127.494 224.627 126.173 225.124C126.192 225.893 126.204 225.914 126.622 226.58C129.461 226.925 127.672 227.214 129.26 228.249L129.637 228.139C129.977 227.338 130.12 226.735 130.809 226.242C131.574 226.097 131.662 226.117 132.365 226.455C132.629 226.841 132.777 226.954 132.777 227.411L132.762 227.03C132.993 226.873 133.09 226.742 133.266 226.531C134.185 226.61 134.392 226.631 135.26 226.93C134.615 227.362 133.553 227.831 133.327 228.383C136.202 229.071 143.729 227.888 145.911 229.216C139.707 229.094 133.504 229.03 127.299 229.022C121.727 229.027 116.24 229.181 110.688 228.688C111.66 227.536 113.021 226.53 112.874 224.995C112.257 224.344 112.489 224.548 111.365 224.416C112.754 224.254 114.068 224.509 115.475 224.362C117.825 224.117 119.878 223.646 122.255 223.397C125.022 223.104 127.112 222.866 129.913 222.76Z" fill="#AC371E"/>
<path d="M122.25 223.399C125.017 223.106 127.107 222.868 129.908 222.762C129.697 223.635 129.695 224.034 129.042 224.635C126.945 225.189 126.174 223.266 124.075 223.497C123.599 223.549 122.708 223.519 122.25 223.399Z" fill="#AC371E"/>
<path d="M126.391 227.125L127.836 227.325C128.513 227.985 128.304 227.834 128.54 228.941C127.951 228.904 127.362 228.862 126.773 228.816C126.31 228.263 126.444 227.969 126.391 227.125Z" fill="#AC371E"/>
<path d="M182.744 214.403C183.962 214.424 185.948 213.973 187.372 214.019C191.107 214.141 193.584 214.423 197.369 213.898L197.958 214.293L197.938 214.514C196.399 215.3 196.372 216.573 195.015 217.832C194.623 216.981 194.425 216.465 193.463 216.558C189.786 220.136 190.268 213.451 184.885 217.515C183.692 217.273 182.735 217.171 181.523 217.042L181.633 216.716C182.825 216.008 182.728 215.699 182.744 214.403Z" fill="#AC371E"/>
<path d="M195.016 217.83C196.373 216.571 196.4 215.298 197.939 214.512C198.411 215.485 198.848 216.866 199.653 217.237C200.24 217.01 200.422 216.631 200.798 216.115C200.719 216.541 200.622 217.057 200.509 217.663C199.935 218.072 198.845 219.332 198.368 219.671L198.209 219.307C197.68 219.965 197.51 220.239 196.816 220.73C196.613 220.257 196.108 219.512 195.819 219.053C195.292 218.681 195.257 218.427 195.016 217.83Z" fill="#AC371E"/>
<path d="M195.82 219.053C196.518 218.389 196.239 218.477 197.079 218.281C197.794 218.575 197.801 218.613 198.21 219.307C197.681 219.965 197.511 220.239 196.817 220.73C196.614 220.257 196.109 219.512 195.82 219.053Z" fill="#AC371E"/>
<path d="M207.479 189.566C209.379 189.807 209.299 189.711 210.506 191.085C211.479 192.193 212.847 195.546 213.953 195.989L214.605 195.802C214.678 196.494 214.551 197.258 214.347 197.922L213.96 198.109C213.064 197.663 211.645 195.855 211.706 194.915C211.806 193.374 209.149 189.286 207.55 190.35C207.473 191.129 207.379 190.903 207.738 191.44C209.696 192.213 210.576 193.102 209.675 195.086C209.578 194.208 209.613 193.706 209.095 193C208.228 192.718 208.58 192.763 207.646 192.973C207.166 192.111 207.028 191.858 206.742 190.921C206.933 189.967 206.761 190.328 207.479 189.566Z" fill="#AC371E"/>
<path d="M197.375 213.896C198.705 213.508 198.661 213.66 199.607 214.785C201.088 215.148 201.814 213.292 202.75 214.779C202.582 215.799 201.691 215.882 200.803 216.115C200.427 216.631 200.245 217.01 199.658 217.237C198.853 216.866 198.416 215.485 197.944 214.512L197.964 214.291L197.375 213.896Z" fill="#AC371E"/>
<path d="M55.0632 18.1211C55.0042 23.0571 50.9162 19.3649 50.2622 19.4816L49.7192 20.1782C49.1102 20.1141 48.8262 19.7925 48.3672 19.2814C50.8792 19.2743 52.7062 18.9122 55.0632 18.1211Z" fill="#AC371E"/>
<path d="M178.383 216.027C178.496 215.344 178.529 215.316 178.9 214.716C180.12 213.893 181.304 214.214 182.746 214.403C182.73 215.699 182.827 216.008 181.635 216.716C180.865 216.333 179.275 216.151 178.383 216.027Z" fill="#AC371E"/>
<path d="M19.4026 133.047C19.796 133.801 19.0527 135.975 18.5305 136.568C18.0573 136.506 16.9884 136.675 16.7808 136.215C16.294 135.136 16.1516 134.052 17.3357 133.469C18.1561 133.62 18.2626 133.66 19.0776 133.574L19.4026 133.047Z" fill="#AC371E"/>
<path d="M152.489 222.603L153.212 222.316C154.349 222.557 154.614 222.427 155.408 223.114L155.511 223.702C154.706 224.805 153.718 225.086 152.52 224.293C152.205 223.623 152.338 223.377 152.489 222.603Z" fill="#AC371E"/>
<path d="M207.648 192.972C208.582 192.762 208.23 192.717 209.097 192.999C209.615 193.705 209.58 194.207 209.677 195.085C209.508 195.727 209.403 196.068 209.153 196.682L208.15 195.968C208.469 195.354 207.845 194.202 207.648 192.972Z" fill="#AC371E"/>
<path d="M198.213 219.309L198.372 219.673C198.426 220.957 198.643 221.624 197.953 222.645L197.647 222.804C197.005 222.195 196.881 221.623 196.82 220.732C197.514 220.241 197.684 219.967 198.213 219.309Z" fill="#AC371E"/>
<path d="M208.149 195.969L209.152 196.683C209.147 197.684 209.277 197.966 208.507 198.574C207.805 198.394 208.057 198.561 207.61 197.813C207.518 196.934 207.691 196.789 208.149 195.969Z" fill="#AC371E"/>
<path d="M59.9873 113.926C64.6323 116.164 67.9493 116.896 73.1023 117.465C73.0613 122.643 73.3003 126.97 73.1393 132.451C69.1273 133.561 64.3573 134.052 60.1323 135.276L59.0763 135.227L58.7423 134.787C58.5173 132.558 59.5633 116.047 59.9873 113.926Z" fill="#AC371E"/>
<path d="M60.0409 113.122C59.8209 107.837 59.7399 102.091 59.8009 96.7821C59.8099 95.9741 60.0779 94.7491 60.8049 94.3251C63.0099 93.0361 68.7879 92.3331 71.1089 92.8681C71.4859 93.7341 71.8099 93.9381 72.5419 94.4841C73.3739 96.4001 73.6059 106.399 73.1189 108.415C71.5559 110.707 61.9169 111.784 60.0409 113.122Z" fill="#AC371E"/>
<path d="M115.797 125.327C116.241 124.124 118.065 119.708 118.65 118.762C120.53 119.385 123.708 120.763 125.52 120.843C124.891 121.764 123.095 124.274 122.106 124.667C119.091 124.312 117.79 125.456 115.797 125.327Z" fill="white"/>
<path d="M142.184 53.1406C143.81 55.8946 147.469 55.7836 146.599 59.1766L146.533 59.4306C144.378 59.1616 140.153 57.7796 139.087 55.7686C139.03 53.8216 140.576 53.5676 142.184 53.1406Z" fill="white"/>
<path d="M143.724 97.9606C142.894 95.9366 140.788 93.5866 141.191 91.3656C142.076 90.1746 144.439 90.2786 145.642 90.7846C146.066 91.1746 146.03 91.1586 146.239 91.7026C146.705 95.4476 145.13 95.4476 143.724 97.9606Z" fill="white"/>
<path d="M82.0428 100.077C79.9698 96.8057 75.3168 95.2137 79.7968 90.5977C82.8698 94.1237 82.2048 95.3087 82.0428 100.077Z" fill="white"/>
<path d="M153.312 84.543C156.226 86.301 159.255 88.439 162.751 87.495C162.026 89.114 157.645 90.783 155.973 89.795C154.625 88.999 153.738 85.967 153.312 84.543Z" fill="white"/>
<path d="M117.505 90.7175C119.621 90.0395 121.743 88.9996 123.766 90.3176C123.176 91.8166 117.534 95.0806 116.211 92.8006C116.316 91.9886 116.696 91.0395 117.505 90.7175Z" fill="white"/>
<path d="M112.141 145.238C113.38 145.392 114.623 145.261 115.732 145.423C118.62 145.846 120.191 146.957 123.146 146.728C120.323 147.727 119.364 147.838 116.468 147.934C115.191 147.295 113.101 146.236 112.141 145.238Z" fill="white"/>
<path d="M114.24 128.532C115.311 128.269 116.804 128.512 118.242 128.348C117.017 129.919 113.94 132.301 112.219 133.244C112.735 131.64 113.318 129.955 114.24 128.532Z" fill="white"/>
<path d="M204.481 223.757C203.657 222.989 201.308 219.094 201.297 218.137C202.846 218.38 205.951 222.322 206.185 223.772C205.998 224.382 205.895 224.412 205.396 224.792C205.039 224.21 205.026 224.14 204.481 223.757Z" fill="#AC371E"/>
<path d="M32.4766 185.152C32.937 184.367 33.7605 182.796 34.3931 182.277C34.9262 183.181 35.9696 184.29 37.0429 184.462C36.8332 184.978 34.652 186.824 34.0945 187.327L32.4766 185.152Z" fill="white"/>
<path d="M190.019 219.797L190.563 219.819C191.596 221.449 193.674 221.948 194.352 224.118L194.046 224.408C193.085 224.25 192.556 223.791 191.763 223.243C191.381 222.567 191.248 221.753 190.877 220.949C190.264 220.509 188.239 220.731 187.18 220.67C188.4 220.489 188.945 220.442 190.019 219.797Z" fill="#AC371E"/>
<path d="M204.481 223.758C205.026 224.141 205.039 224.211 205.396 224.793C203.893 225.609 202.604 225.838 200.945 225.423L200.954 224.433C202.442 223.614 202.847 224.39 204.481 223.758Z" fill="#AC371E"/>
<path d="M201.703 65.561C202.148 65.409 202.641 65.513 202.986 65.833C203.331 66.152 203.474 66.636 203.356 67.091C203.239 67.547 202.881 67.902 202.425 68.015C201.759 68.18 201.082 67.791 200.888 67.134C200.695 66.476 201.054 65.782 201.703 65.561Z" fill="#AC371E"/>
<path d="M210.773 206.621C211.576 206.902 211.63 206.896 212.117 207.553C212.258 208.374 211.985 208.703 211.605 209.461C210.627 208.974 210.944 209.262 210.349 208.402C210.25 207.527 210.343 207.403 210.773 206.621Z" fill="#AC371E"/>
<path d="M43.6804 82.9727C45.0484 83.3517 45.0084 84.0607 45.3424 85.3177C44.1724 84.5677 43.5534 84.4417 43.6804 82.9727Z" fill="#AC371E"/>
<path d="M101.524 129.472L102.526 129.203L102.894 129.445C102.358 129.952 102.666 129.812 101.942 129.888L101.352 129.625L101.524 129.472Z" fill="white"/>
<path d="M1.22553 60.2754C1.44903 59.0334 1.68383 57.8244 2.03513 56.6094C2.71103 54.2714 4.40163 53.5694 3.11893 51.2204C3.23283 50.1604 3.42523 50.1284 4.46303 49.7284C4.94143 47.6304 1.44723 45.2844 3.59593 43.6084C3.90443 43.3674 4.94093 43.2644 5.25273 43.5594C8.76793 46.8864 7.90543 54.8394 8.45943 59.2774C9.02533 63.8094 9.26873 66.3954 9.72403 70.7384C10.109 77.5484 9.85693 84.4074 10.0989 91.2274C10.1829 93.5964 10.4135 96.1344 9.94383 98.4504C9.10753 99.1264 8.09883 99.7614 7.72293 100.707C7.96143 101.602 8.04003 101.644 9.03043 102.21C9.17343 102.292 9.31733 102.372 9.46203 102.451C8.34923 106.93 8.48063 111.393 8.49013 115.976C8.49493 118.346 8.80863 118.698 8.18553 120.908C7.46283 123.471 9.45703 128.233 9.39893 131.039C9.49833 133.779 9.44473 134.881 9.23613 137.227L6.78763 138.206C9.38813 142.739 7.99083 148.207 9.20793 152.795C6.82643 157.309 8.76473 155.493 10.9433 158.898C11.066 160.191 9.78633 160.366 8.70123 160.616C8.14873 161.843 7.28043 163.376 7.53373 164.674C8.20023 165.388 8.89873 165.252 9.85313 166.194C10.572 168.293 8.58653 168.537 8.54393 170.289C8.53453 170.677 9.91343 171.984 9.88063 172.641C9.75563 175.148 7.53953 187.15 5.15663 188.146C4.69193 187.7 4.57993 186.752 4.52713 186.088C4.39953 184.482 2.73363 182.347 2.62673 180.997C4.11503 178.868 2.32893 174.952 1.88333 172.915L2.34643 172.16C2.27083 171.355 2.20343 170.199 2.20333 169.412L2.14983 157.269C2.15473 155.81 2.40943 150.487 2.17703 149.467C0.61903 142.627 1.33823 136.149 1.29373 129.275C1.39143 128.192 1.34523 127.754 1.25293 126.681C0.604131 124.825 0.438631 105.217 0.775331 102.25C0.863531 101.473 2.13473 101.245 2.72873 100.713C3.18393 100.305 3.24893 100.223 3.33863 99.5804C3.53653 98.1594 2.34103 97.9224 1.50563 96.9614C0.299628 95.5744 1.79643 95.3604 1.66173 94.1824C1.60403 93.6764 0.787531 92.3064 0.658231 91.7904C0.457431 90.9894 0.583431 89.4534 0.628831 88.5924C3.09363 85.7774 1.76043 85.1034 0.294229 82.8974C-0.477471 75.1954 0.42293 67.8944 1.22553 60.2754Z" fill="#AC371E"/>
<path d="M1.25781 126.679C2.84251 126.155 5.47261 127.515 4.78751 129.719C3.93191 129.957 3.23281 128.983 1.29861 129.273C1.39631 128.19 1.35011 127.752 1.25781 126.679Z" fill="#AC371E"/>
<path d="M112.079 0C117.855 1.8798 125.29 0.1564 131.383 0.5387C132.675 0.6197 134.328 0.521199 135.478 1.1302C140.861 3.9822 146.74 0.708201 152.306 0.395401C157.486 0.104201 163.715 1.3871 168.952 1.7498C179.125 2.2068 190.524 -2.0637 198.625 6.5671L198.568 7.0116C197.072 7.5683 194.892 7.6333 193.29 7.9022C186.469 9.0475 179.3 9.0897 172.426 8.3464C167.657 7.8307 163.651 8.5874 158.919 8.8245C149.708 9.2859 140.477 9.5664 131.254 9.5243C126.67 9.4903 121.811 8.6546 117.319 8.394L99.5698 7.3842C96.8338 7.2281 94.0828 7.1544 91.3328 6.9787C89.0838 6.8352 85.6988 5.5215 83.9778 5.513C79.9908 5.4933 76.6618 5.4763 72.6548 5.2677C71.6918 3.8549 71.7028 4.8682 71.7838 2.7848C73.2738 2.8433 77.5328 2.046 79.3678 1.9207C81.6668 1.7637 85.0938 1.934 87.0848 1.5077C88.5258 1.2916 90.2338 1.0373 91.6908 1.0303C98.4038 0.9981 105.428 0.8486 112.079 0Z" fill="#AC371E"/>
<path d="M217.997 98.0547C218.716 99.2737 219.077 99.6937 220.221 100.583C221.513 102.242 221.211 118.66 221.539 121.778C221.701 128.557 221.726 134.509 220.987 141.315C220.761 143.389 221.468 146.43 221.385 148.575C221.17 155.667 220.667 162.715 219.988 169.778C219.836 171.361 221.238 174.022 220.29 175.474C219.332 176.032 218.534 175.733 217.553 175.358C216.185 174.481 217.22 173.801 215.404 173.221C214.737 170.49 215.901 159.762 215.625 155.853C215.16 149.287 217.392 143.976 213.547 137.552C214.579 133.226 214.166 126.954 214.4 122.408C214.579 118.939 214.881 115.295 214.9 111.842C214.916 108.943 214.351 105.723 214.711 102.822C215.026 100.287 216.11 99.5127 217.997 98.0547Z" fill="#AC371E"/>
<path d="M66.0149 225.046C72.4049 223.39 77.4309 222.991 83.8649 224.756C83.8099 225.776 83.9819 226.455 83.1489 227.112C82.2109 227.852 79.9669 228.319 78.7719 228.538C77.5269 228.89 74.4319 228.789 73.0029 228.794L70.2029 228.667C69.4669 228.589 68.8669 228.595 68.1319 228.592C66.0459 228.453 63.8409 228.515 61.7419 228.531C61.5949 227.985 61.3729 227.815 60.9869 227.437C60.8199 226.744 61.0539 226.172 61.2349 225.46L61.4629 225.72C61.5409 226.198 61.5899 226.409 61.7249 226.874C62.9379 226.926 64.3069 225.315 66.0149 225.046Z" fill="#AC371E"/>
<path d="M61.2349 225.461L61.4629 225.721C61.5409 226.199 61.5899 226.41 61.7249 226.875C62.9379 226.927 64.3069 225.316 66.0149 225.047C68.3579 225.204 72.6149 224.752 74.0459 226.294C74.2519 227.001 74.0169 227.532 73.8239 228.267L73.0029 228.795L70.2029 228.668C69.4669 228.59 68.8669 228.596 68.1319 228.593C66.0459 228.454 63.8409 228.516 61.7419 228.532C61.5949 227.986 61.3729 227.816 60.9869 227.438C60.8199 226.745 61.0539 226.173 61.2349 225.461Z" fill="#AC371E"/>
<path d="M43.8394 224.987C46.6804 224.783 49.8604 224.491 52.6964 224.653C55.5614 224.815 58.3264 225.373 61.2334 225.463C61.0524 226.175 60.8184 226.747 60.9854 227.44C61.3714 227.818 61.5934 227.988 61.7404 228.534C59.7874 228.877 56.4594 228.711 54.3274 228.741C54.3454 228.746 43.3184 227.96 43.3544 227.956C42.6404 227.859 41.9284 227.748 41.2194 227.622C40.1534 226.517 39.8384 227.928 38.4531 225.513C39.8744 224.761 42.2644 224.701 43.8394 224.987Z" fill="#AC371E"/>
<path d="M38.4531 225.512C39.8744 224.76 42.2644 224.7 43.8394 224.986C42.5474 225.162 42.3774 224.978 41.4824 225.669C41.2224 226.517 41.2324 226.727 41.2194 227.621C40.1534 226.516 39.8384 227.927 38.4531 225.512Z" fill="#AC371E"/>
<path d="M216.341 92.2969C216.723 89.9459 217.12 87.4689 217.256 85.0969C217.337 83.6779 216.131 82.8939 217.367 81.4229C218.262 81.3789 218.833 81.4669 219.177 82.4439C220.571 86.4049 220.253 91.2639 220.888 95.3309C219.781 93.9439 218.857 95.3659 217.64 94.6489L216.95 94.3309L216.811 94.4469C216.247 94.9139 216.145 94.9869 215.47 95.2499C214.698 94.3979 215.684 92.9829 216.341 92.2969Z" fill="#AC371E"/>
<path d="M104.514 224.608C106.304 224.523 109.443 224.296 111.114 224.462L111.362 224.419C112.486 224.551 112.255 224.347 112.872 224.998C113.019 226.533 111.658 227.539 110.685 228.69C109.639 228.569 108.301 228.521 107.227 228.452C105.258 228.07 102.935 228.834 101.501 227.96C101.481 227.045 101.187 225.509 100.305 225.122C101.581 224.885 103.244 224.563 104.514 224.608Z" fill="#AC371E"/>
<path d="M111.114 224.461L111.362 224.418C112.486 224.55 112.255 224.346 112.872 224.997C113.019 226.532 111.658 227.538 110.685 228.689C109.639 228.568 108.301 228.52 107.227 228.451C108.01 228.254 108.356 228.175 109.164 228.109L109.348 228.096L109.59 227.715L109.251 226.916C109.675 226.92 110.038 226.924 110.463 226.967L110.767 226.999C111.304 226.338 111.102 225.512 111.114 224.461Z" fill="#AC371E"/>
<path d="M6.0755 18.4422C6.8722 17.844 7.7933 17.1193 8.6054 16.5742C8.0138 18.3103 7.4985 19.5082 7.5149 21.378C7.914 24.0606 7.6394 33.8618 5.8333 35.5895C5.0196 35.7784 5.4068 35.8103 4.632 35.4833C3.2789 33.2475 5.4924 29.1769 5.6003 26.9495C5.7531 23.7979 3.9406 21.5003 6.0755 18.4422Z" fill="#AC371E"/>
<path d="M6.07031 18.4422C6.86701 17.844 7.78811 17.1193 8.60021 16.5742C8.00861 18.3103 7.49331 19.5082 7.50971 21.378C6.58861 20.7602 6.30911 19.4541 6.07031 18.4422Z" fill="#AC371E"/>
<path d="M216.034 57.8519C215.746 55.7989 214.934 51.7549 215.539 49.9919C216.902 48.5139 218.25 49.7799 219.75 50.6559C219.924 54.8569 219.34 55.3749 218.696 59.1919C217.879 58.7409 216.882 58.2749 216.034 57.8519Z" fill="#AC371E"/>
<path d="M93.4141 224.913C95.6851 224.736 98.0201 225.017 100.308 225.122C101.19 225.509 101.484 227.045 101.504 227.96C98.4301 228.537 96.6041 228.721 93.4331 228.704C94.2811 228.563 94.3241 228.704 94.8251 228.221C95.1181 226.618 95.0041 226.663 94.4291 225.127L93.4141 224.913Z" fill="#AC371E"/>
<path d="M88.577 225.081L93.058 224.781C91.511 225.557 91.963 227.155 92.002 228.81C90.374 228.734 88.882 228.894 87.273 228.562L87.004 228.59C86.503 227.107 86.289 226.537 86.125 225.001L88.308 224.969L88.577 225.081Z" fill="#AC371E"/>
<path d="M86.125 225.005L88.308 224.973L88.577 225.085L89.175 225.475C89.345 227.166 87.942 227.246 87.273 228.566L87.004 228.594C86.503 227.111 86.289 226.541 86.125 225.005Z" fill="#AC371E"/>
<path d="M72.6563 5.26641C70.6413 4.83521 66.3423 5.1663 64.3203 3.7696L64.3833 3.4038C66.3113 2.4085 69.6853 2.5298 71.7853 2.7835C71.7043 4.8669 71.6933 3.85361 72.6563 5.26641Z" fill="#AC371E"/>
<path d="M217.635 94.6484C218.852 95.3654 219.776 93.9434 220.883 95.3304C220.558 98.1784 219.518 97.8054 220.218 100.584C219.074 99.6954 218.713 99.2754 217.994 98.0564L217.963 97.3774L217.683 97.1664C216.996 97.2614 215.514 98.2594 214.609 98.7064C215.678 97.3024 217.057 96.2654 217.635 94.6484Z" fill="#AC371E"/>
<path d="M83.8586 224.758L86.1206 225.004C86.2846 226.54 86.4986 227.11 86.9996 228.593C84.2546 228.629 81.5096 228.611 78.7656 228.54C79.9606 228.321 82.2046 227.854 83.1426 227.114C83.9756 226.457 83.8036 225.778 83.8586 224.758Z" fill="#AC371E"/>
<path d="M215.403 173.223C217.219 173.803 216.184 174.483 217.552 175.36C217.744 176.841 217.769 177.085 217.516 178.548L216.775 178.597C215.627 178.896 215.506 179.531 214.398 179.542C215.699 176.6 215.653 176.377 215.403 173.223Z" fill="#AC371E"/>
<path d="M93.0611 224.781L93.4141 224.909L94.4291 225.123C95.0041 226.659 95.1181 226.614 94.8251 228.217C94.3241 228.7 94.2811 228.559 93.4331 228.7L92.0051 228.81C91.9661 227.155 91.5141 225.557 93.0611 224.781Z" fill="#AC371E"/>
<path d="M68.1306 228.594C68.8656 228.597 69.4656 228.591 70.2016 228.669L68.7026 228.936C69.6026 229.324 74.5176 228.536 75.3776 229.199C74.7496 229.771 71.3006 229.715 70.5486 229.515C68.7666 229.042 61.9766 230.051 60.7656 229.254C61.3946 228.699 66.7486 228.808 68.1306 228.594Z" fill="white"/>
<path d="M35.5781 225.943C36.5556 225.867 37.5544 225.865 38.4517 225.512C39.837 227.927 40.152 226.516 41.218 227.621C41.927 227.747 42.639 227.858 43.353 227.955C40.824 227.995 38.5047 228.154 36.0229 227.648C35.9773 227.328 35.6767 226.312 35.5781 225.943Z" fill="#AC371E"/>
<path d="M36.0266 227.646C34.6786 227.475 31.2537 226.907 30.4609 225.854L30.6255 225.446C31.9874 224.778 34.3033 225.24 35.5818 225.941C35.6804 226.31 35.981 227.326 36.0266 227.646Z" fill="#AC371E"/>
<path d="M216.031 57.8516C216.879 58.2746 217.876 58.7406 218.693 59.1916C218.479 60.3246 217.104 63.6726 216.62 64.9196C216.572 61.9026 216.527 60.7486 216.031 57.8516Z" fill="#AC371E"/>
<path d="M180.016 228.707C181.489 228.053 183.855 226.998 185.449 227.032L185.802 227.287C185.742 228.352 185.27 228.283 185.075 229.015L181.946 229.022L180.016 228.707Z" fill="#AC371E"/>
<path d="M0.296816 82.8945C1.76302 85.1005 3.09622 85.7745 0.631419 88.5895C0.384919 86.4185 0.207716 85.0815 0.296816 82.8945Z" fill="#AC371E"/>
<path d="M17.1734 126.953C17.5264 127.863 17.3789 129.163 17.2335 130.099C16.6331 128.688 16.6895 128.372 17.1734 126.953Z" fill="#AC371E"/>
</svg>
