<svg width="919" height="918" viewBox="0 0 919 918" fill="none" xmlns="http://www.w3.org/2000/svg">
<path d="M215.52 4.63911C246.06 2.30611 274.83 2.70711 305.23 3.55711C326.1 4.14011 351.12 0.0231033 372.29 0.0261033C379.87 -0.529897 393.019 7.98911 401.829 7.19511C428.639 4.78111 454.12 0.0961035 481.36 0.970104C501.74 1.6231 520.95 6.99509 541.22 7.36509C564.74 6.50109 576.9 0.840103 601.75 4.0261C610.76 15.0751 628 15.2171 641.63 14.3451C655.85 13.4361 669.57 3.6701 684.92 5.9271C708.19 6.3651 732.07 4.3671 755.4 6.4521C766.95 7.3621 771.01 12.0151 785.43 11.3441C787.95 9.1811 790.81 6.84209 793.23 4.61409L794.61 4.83509C826.35 9.72309 866.15 -5.13791 888.72 25.9811C894.2 33.5321 898.63 42.3031 900.98 51.3281C901.36 56.4211 902.34 80.8641 903.4 83.9191C905.41 92.5261 904.43 104.501 905.18 113.673C905.62 119.014 907.01 130.11 906.41 135.014C902.97 163.413 908.48 190.469 910.42 218.693C910.84 224.053 906.26 232.999 906.88 238.894C908.67 251.004 911.91 258.648 913.05 271.368C919.55 312.615 913.44 347.956 912.89 387.392C913.69 401.03 910.81 416.278 912.47 429.457C914.85 448.436 913.44 467.742 913.83 485.983C914.31 508.564 918.36 516.271 910.2 539.527C917.49 560.021 917.69 583.17 916.93 604.59C916.55 615.382 919.82 629.009 917.61 639.78C914.97 652.742 908.71 659.648 909.27 673.79C909.85 688.356 909.39 703.397 910.38 718.007C912.82 737.687 915.87 768.217 911.95 787.817C910.02 790.357 908.74 790.497 905.63 791.727C905.24 793.037 904.85 794.387 904.43 795.687C905.2 804.307 907.97 802.697 910.94 810.297C913.24 816.217 912.39 824.477 912.4 831.157C914.92 847.287 911.98 865.707 902.24 877.787C890.43 892.417 872.81 904.017 854.55 907.037C840.52 909.357 828.9 906.077 815.11 905.647C780.66 914.767 744.49 912.157 709.25 913.437C684.04 914.357 660.51 919.217 635.34 913.707C631.97 912.957 626.1 909.177 622.97 907.267C608.02 908.007 605.56 910.347 591.02 906.697C588.77 907.507 579.52 911.477 577.86 911.677C563.74 913.357 549.01 914.077 534.82 916.037C527.16 917.097 516.11 914.627 508.24 915.237C490.93 915.497 474.06 914.257 456.84 912.737C446.87 911.857 434.24 914.567 424.67 913.867C402.63 912.267 384.68 913.777 362.98 917.457C355.22 918.767 338.38 914.417 329.71 915.427C294.25 915.607 259.25 915.317 223.79 916.007C200.43 916.457 183.789 909.477 157.559 913.897C148.389 916.137 142.29 915.757 133.09 914.307C128.19 910.517 127.45 909.817 121.59 912.007C111.79 915.687 108.66 913.777 99.5496 910.477C98.5596 910.117 91.6595 914.357 89.8095 914.407C68.8195 915.067 38.3895 914.637 25.0165 895.717C9.17952 871.567 14.3925 840.487 12.0415 813.267C10.1835 791.757 6.46553 771.047 6.12553 749.517C6.02253 739.897 8.44457 725.977 10.1736 716.277C5.84957 683.11 1.01953 690.86 8.49553 658.331L8.44755 656.917C8.13755 645.154 2.67452 640.271 2.26152 630.389C1.62752 615.23 3.61552 598.995 2.78752 583.775C1.71652 564.07 -0.704437 545.135 1.08256 525.334C1.35656 517.541 0.450523 509.028 0.904523 501.302C2.53252 473.576 5.72855 446.711 3.67155 418.848C3.07755 410.792 5.07455 400.707 4.73655 392.412C4.29255 381.541 1.33355 370.682 0.153546 359.857C-0.795454 353.759 2.98354 345.11 2.51854 339.399C0.839537 318.817 0.880526 298.885 1.48253 278.243C1.99953 260.547 6.28755 244.252 10.5415 227.158C12.7635 218.232 16.6475 209.576 16.6405 200.334C17.0795 189.426 17.9696 176.879 14.4546 166.537C12.5486 155.432 7.43353 143.816 5.25053 132.576C2.43853 128.011 8.91652 118.951 8.68852 117.84C4.64652 98.1101 1.84954 91.4001 6.08354 70.6251C7.73854 68.9611 10.0215 65.4521 11.4385 63.4251C25.8155 57.5551 24.6415 56.1471 23.0965 40.8521C24.8795 37.9721 25.3215 36.0511 27.6205 32.9611C48.4055 5.0351 82.2295 15.8111 111.36 13.1581C121.52 11.5831 130.5 6.49809 141.01 6.53709C152.43 6.57809 165.71 10.8481 176.95 8.67808C182.35 7.65808 210.83 4.57711 215.52 4.63911ZM60.8096 767.397C60.4196 775.267 63.2896 788.727 63.8196 798.197C70.6296 814.307 58.6996 848.457 81.7496 862.967L84.7295 864.007C108.04 870.017 143.14 867.117 167.74 869.057C172.47 869.427 201.41 867.807 204.95 866.267C228.34 856.067 250.24 864.407 274.63 863.987C294.66 862.907 314.61 863.677 334.42 863.107C349.97 862.657 365.2 857.307 382.11 858.537C401.58 859.957 422.499 857.767 442.069 858.677C471.769 860.257 476.409 869.007 507.189 860.077C519.279 855.927 573.97 855.317 588.43 856.017C594.77 856.327 605.07 858.037 611.49 859.447C621.39 861.707 635.33 863.917 645.14 861.117C668.03 854.587 685.38 851.037 708.96 857.817C723.6 851.997 743.98 854.767 760.05 854.727C780.01 855.767 799.61 854.437 819.47 853.857C835.85 853.387 836.17 852.347 850.83 848.147C853.57 844.827 856.35 841.537 859.17 838.287C862.06 823.917 862.01 808.697 863.48 794.427C865 780.197 867.75 765.107 866.43 750.727C864.75 723.597 859.18 693.827 860.44 666.601C861.57 642.192 860.01 618.343 860.71 594.32C861.45 568.36 864.82 542.523 862.82 516.238C861.79 502.77 857.37 489.171 857.03 475.524C856.94 458.197 860.02 441.899 860.91 424.64C861.78 407.749 858.26 391.391 858.72 374.839C858.99 364.905 863.38 348.4 862.93 338.891C862.07 320.625 855.36 297.095 853.99 278.917C853.3 269.738 860.69 246.053 860.47 235.13C860.31 227.026 858.13 219.357 857.78 212.373C857.25 201.708 855.37 189.127 854.94 178.841C854.27 162.732 856.11 144.22 856.7 128.138C856.88 123.24 853.84 110.018 853.32 104.334C852.71 97.6411 853.22 90.6781 852.76 84.6071C851.7 76.7631 852.18 71.1271 846.35 65.6531C833.35 53.4711 818.2 52.5281 800.9 51.5651C785.08 50.6851 765.89 53.4381 749.71 53.1461C735.12 52.8821 719.02 48.6611 704.02 50.4601C683.51 51.8381 665.88 54.6891 645.72 57.2081C633.29 58.7601 615.01 57.8981 601.72 59.3481C594.24 60.1641 579.3 55.1271 570.32 55.1921C554.87 55.3031 539.44 58.4141 524.17 58.7761C512.9 59.0441 500.39 56.2201 488.59 56.1801C475.68 56.1361 465.75 60.9411 453.55 61.4941C448.15 61.7391 435.29 57.5511 429.16 57.9401C411.76 59.0451 403.63 62.3291 385.74 60.1131C369.01 58.0421 353.2 52.8851 336.91 51.6681C328.35 51.0281 314.83 56.5261 306.29 58.5531C295.82 61.0391 281.399 64.4911 270.689 65.0581C260.759 65.7971 249.059 63.4261 239.309 63.9801C218.079 65.1881 199.32 64.7681 178.28 61.7111C171.05 60.6611 158.02 62.9571 150.13 62.8981C130.18 62.7491 110.05 63.1611 90.2596 65.8791C82.6496 66.9441 70.6796 70.9001 66.1996 77.4751C60.0196 86.5371 61.1396 103.05 59.2696 113.869C57.5396 123.832 53.8095 133.919 52.8595 143.768C51.9195 153.551 53.3395 165.499 52.7795 175.341C51.5495 196.799 51.6296 217.992 52.0596 239.47C52.2296 248.466 54.5896 259.236 54.8896 268.413C55.1696 276.955 55.1596 285.396 55.5096 293.976C56.2196 311.316 60.7796 330.35 61.7596 347.105C62.2296 355.104 57.0195 372.311 57.4195 382.209C57.7395 390.297 59.3695 397.912 59.5995 405.305C59.7795 411.16 56.9096 419.986 57.5696 426.878C57.9696 430.999 60.5496 439.402 60.2696 442.203C59.2296 452.581 54.3395 463.848 55.1795 474.491C56.0895 486.108 62.6695 496.616 62.4595 508.854C62.2495 521.555 61.0296 534.255 60.2596 546.923C59.3796 554.375 61.6195 566.493 60.2195 573.482C54.2195 603.505 53.3595 621.688 58.3395 652.087C60.1995 661.713 61.5595 671.206 62.9895 680.899L62.9996 682.418C63.1596 694.087 65.3795 704.587 65.6695 716.487C66.0895 733.887 62.2596 750.817 60.8096 767.397Z" fill="#B73421"/>
<path d="M58.34 652.088C53.36 621.689 54.22 603.505 60.22 573.482C61.62 566.493 59.38 554.375 60.26 546.923C61.03 534.255 62.25 521.555 62.46 508.854C62.67 496.616 56.09 486.108 55.18 474.491C54.34 463.848 59.23 452.581 60.27 442.203C60.55 439.402 57.97 431 57.57 426.879C56.91 419.987 59.78 411.161 59.6 405.306C59.37 397.913 57.74 390.298 57.42 382.21C57.02 372.312 62.23 355.104 61.76 347.105C60.78 330.351 56.22 311.316 55.51 293.976C55.16 285.396 55.17 276.955 54.89 268.413C54.59 259.236 52.23 248.466 52.06 239.47C51.63 217.992 51.55 196.799 52.78 175.341C53.34 165.499 51.92 153.552 52.86 143.769C53.81 133.92 57.54 123.832 59.27 113.869C61.14 103.05 60.02 86.5375 66.2 77.4755C70.68 70.9005 82.65 66.9445 90.26 65.8795C110.05 63.1615 130.18 62.7495 150.13 62.8985C158.02 62.9575 171.05 60.6615 178.28 61.7115C199.32 64.7685 218.08 65.1885 239.31 63.9805C249.06 63.4265 260.76 65.7975 270.69 65.0585C281.4 64.4915 295.82 61.0395 306.29 58.5535C314.83 56.5265 328.35 51.0285 336.91 51.6685C353.2 52.8855 369.01 58.0425 385.74 60.1135C403.63 62.3295 411.76 59.0455 429.16 57.9405C435.29 57.5515 448.15 61.7395 453.55 61.4945C465.75 60.9415 475.68 56.1365 488.59 56.1805C500.39 56.2205 512.9 59.0445 524.17 58.7765C539.44 58.4145 554.87 55.3035 570.32 55.1925C579.3 55.1275 594.24 60.1645 601.72 59.3485C615.01 57.8985 633.29 58.7605 645.72 57.2085C665.88 54.6895 683.51 51.8385 704.02 50.4605C719.02 48.6615 735.12 52.8825 749.71 53.1465C765.89 53.4385 785.08 50.6855 800.9 51.5655C818.2 52.5285 833.35 53.4715 846.35 65.6535C852.18 71.1275 851.7 76.7635 852.76 84.6075C853.22 90.6785 852.71 97.6415 853.32 104.334C853.84 110.018 856.88 123.24 856.7 128.138C856.11 144.22 854.27 162.732 854.94 178.841C855.37 189.127 857.25 201.709 857.78 212.374C858.13 219.358 860.31 227.026 860.47 235.13C860.69 246.053 853.3 269.739 853.99 278.918C855.36 297.096 862.07 320.626 862.93 338.892C863.38 348.401 858.99 364.906 858.72 374.84C858.26 391.392 861.78 407.749 860.91 424.64C860.02 441.899 856.94 458.198 857.03 475.525C857.37 489.172 861.79 502.77 862.82 516.238C864.82 542.523 861.45 568.36 860.71 594.32C860.01 618.343 861.57 642.193 860.44 666.602C859.18 693.828 864.75 723.597 866.43 750.727C867.75 765.107 865 780.198 863.48 794.428C862.01 808.698 862.06 823.918 859.17 838.288C856.35 841.538 853.57 844.828 850.83 848.148C836.17 852.348 835.85 853.387 819.47 853.857C799.61 854.437 780.01 855.767 760.05 854.727C743.98 854.767 723.6 851.998 708.96 857.818C685.38 851.038 668.03 854.587 645.14 861.117C635.33 863.917 621.39 861.708 611.49 859.448C605.07 858.038 594.77 856.328 588.43 856.018C573.97 855.318 519.28 855.927 507.19 860.077C476.41 869.007 471.77 860.258 442.07 858.678C422.5 857.768 401.58 859.958 382.11 858.538C365.2 857.308 349.97 862.657 334.42 863.107C314.61 863.677 294.66 862.907 274.63 863.987C250.24 864.407 228.34 856.068 204.95 866.268C201.41 867.808 172.47 869.428 167.74 869.058C143.14 867.118 108.04 870.018 84.73 864.008L81.75 862.967C58.7 848.457 70.63 814.308 63.82 798.198C63.29 788.728 60.42 775.268 60.81 767.398C62.26 750.818 66.09 733.887 65.67 716.487C65.38 704.587 63.16 694.088 63 682.419L62.99 680.9C61.56 671.207 60.2 661.714 58.34 652.088ZM225.84 369.559C218.18 361.113 200.92 342.798 188.48 347.359C183.66 352.713 191.07 373.684 192.6 380.952C197.39 403.735 196.34 425.305 195.79 448.278C194.64 497.19 189.88 545.951 181.55 594.161C172.08 651.649 158.2 703.558 132.52 756.178C131.05 759.188 131.86 760.688 133.95 762.568C139.75 763.588 146.71 758.978 150.93 755.798C197.79 720.458 219.29 663.577 225.67 606.911C226.7 597.687 229.02 581.934 231.72 572.986C241.17 579.056 251.34 586.858 263.61 584.763C270.35 583.612 283.16 575.108 289.05 578.477C292.67 597.923 285.42 705.518 311.3 708.008C320.57 704.048 323.26 688.898 328.71 685.479C343.69 700.467 354.05 716.508 372.04 731.378C384.79 741.898 398.58 791.918 426.8 765.448C459.53 731.618 454.34 683.306 451.56 640.286C450.75 627.686 451.85 612.96 449.02 600.879C460.87 610.58 469.55 614.582 483.45 620.185C505.16 628.931 516.41 617.641 535.83 610.973C546.66 607.256 591.29 591.833 600.18 595.854C604.69 603.092 600.25 668.304 600.77 680.833C602.27 716.638 602.94 754.198 608.15 789.698C607.81 791.698 607.72 791.778 607.73 793.808C610.22 804.288 610.53 827.348 619.21 833.268C633.19 835.098 640.04 797.788 643.25 787.568C650.8 763.538 650.65 737.048 653.6 712.288C654.76 702.608 653.88 684.83 656.17 676.26C656.71 675.75 658.39 674.034 658.47 673.536C660.85 659.223 662.66 594.458 660.65 583.552C664.61 583.781 671.43 583.252 675.36 582.697C714.1 577.22 750.19 580.763 788.65 585.992C799.79 587.506 805.26 584.733 813.91 577.786L814.27 574.948C815.53 564.598 816.29 562.645 810.34 553.732C800.65 539.21 758.64 524.375 742.24 522.691C729.97 528.949 714.45 534.944 700.82 536.916C683.51 539.417 673.44 539.486 656.54 544.58C657.15 523.08 656.39 498.624 656.17 476.989C673.97 466.033 709.85 463.775 729.83 454.855C759.07 441.809 741.24 423.459 719.65 417.086L718.92 417.013C707.89 411.959 695.32 411.426 683.91 415.528C675.66 418.533 666.78 422.86 657.73 426.146C657.55 421.307 657.27 415.696 658.27 411.257C661.67 396.145 671.43 385.822 656.01 373.344C655.28 372.756 653.25 370.781 652.3 369.926C661.78 368.774 671.01 368.093 678.84 362.388C723.8 329.643 732.36 264.115 747.09 213.982C749.71 205.059 764.94 193.506 762.94 182.113C757.14 161.974 735.38 147.479 719.13 135.791C709.18 128.633 701.78 125.27 689.39 128.292C631.4 142.439 573.18 155.702 515.26 170.289C506.65 172.462 484.81 170.891 479.96 176.334C479.05 178.508 478.07 180.063 479.41 182.763C484.98 193.948 507.5 206.864 517.98 210.969C534.94 217.604 551.9 210.107 567.7 204.148C566.49 246.257 512.45 326.258 484.37 359.34C481.32 362.938 471.93 372.561 474.75 376.848C482.22 378.742 507.03 364.848 514.15 360.621C539.23 345.728 559.96 322.79 576.69 299.155C580.5 293.77 584.21 288.401 588.31 283.444C596.45 298.617 604.06 303.429 614.74 315.889C622.9 325.416 636.57 351.43 639.78 363.803C629.32 358.831 597.8 343.213 588.85 359.376C587.82 361.227 586.94 367.54 586.57 369.954C600.88 388.177 600.94 395.548 601.23 418.458C601.32 425.426 602.26 432.94 602.36 439.947C593.76 443 560.87 453.654 553.45 450.822C548.62 441.646 569.44 428.794 561.76 413.754C554.66 399.852 540.84 392.234 526.7 385.981C491.82 376.543 512 406.798 510.98 412.512C505.27 444.599 491.41 481.266 476.15 509.543C473.92 516.457 468.65 521.943 470.32 529.483C474.31 531.83 482.51 526.597 485.74 523.804C502.76 512.251 523.1 491.182 536.13 475.303C564.33 488.501 570.86 488.749 600.95 486.192C602.66 503.335 601.88 535.885 601.93 554.19C591.22 556.971 568.87 560.393 557.36 562.947C534.51 568.019 470.68 588.766 450.92 581.792C447.66 570.983 448.41 542.958 447.94 530.228L444.52 446.895C443.48 418.479 439.87 402.888 450.59 375.012L454.22 368.046C465.7 350.182 443.41 331.988 429.66 324.302C415.41 316.333 398.83 306.018 381.75 310.31C375.92 311.824 373.75 314.593 369.67 318.816C357.5 321.674 329.74 329 318.3 330.421C345.91 306.489 369.53 281.237 396.03 256.354C406.98 246.073 420.18 238.937 431.38 229.077C439.57 222.115 440.12 209.058 431.73 202.025C420.48 192.594 403.57 180.626 388.86 178.214C376.85 176.869 365.24 191.487 357.93 193.75C344.07 198.043 319.49 205.325 305.67 207.005C313.01 185.684 324.07 181.22 336.14 160.737C336.23 149.214 334.38 137.336 325.13 129.161C311.75 117.332 281.45 95.1625 264 108.431C257.04 117.723 272.47 129.793 269.8 141.196C267.14 152.557 260.95 158.836 255.94 168.088C232.95 210.541 203.67 246.353 173.49 283.689C165.67 293.368 127.2 334.099 127.11 341.469C129.9 342.915 135.13 341.387 138.1 340.306C185.79 322.972 220.99 290.607 257.06 256.211C261.4 252.07 282.76 230.4 286.46 228.789C287.33 228.409 310.97 238.073 316.81 237.112C317.51 236.997 329.18 237.921 333.61 236.775C337.2 235.847 344.92 233.58 348.1 233.993C350.08 248.29 289.1 323.533 281.94 341.139C254.08 350.09 249.15 351.771 225.84 369.559Z" fill="#FDFEFC" fill-opacity="0.01"/>
<path d="M281.939 341.14C289.099 323.534 350.079 248.291 348.099 233.994C344.919 233.581 337.199 235.848 333.609 236.776C329.179 237.922 317.509 236.998 316.809 237.113C310.969 238.074 287.329 228.41 286.459 228.79C282.759 230.401 261.399 252.071 257.059 256.212C220.989 290.608 185.789 322.972 138.099 340.306C135.129 341.387 129.899 342.916 127.109 341.47C127.199 334.1 165.669 293.369 173.489 283.69C203.669 246.354 232.949 210.542 255.939 168.089C260.949 158.837 267.139 152.557 269.799 141.196C272.469 129.793 257.039 117.724 263.999 108.432C281.449 95.1626 311.749 117.333 325.129 129.162C334.379 137.337 336.229 149.215 336.139 160.738C324.069 181.221 313.009 185.685 305.669 207.006C319.489 205.326 344.069 198.044 357.929 193.751C365.239 191.488 376.849 176.87 388.859 178.215C403.569 180.627 420.479 192.595 431.729 202.026C440.119 209.059 439.569 222.115 431.379 229.077C420.179 238.937 406.979 246.074 396.029 256.355C369.529 281.238 345.909 306.49 318.299 330.422C329.739 329.001 357.499 321.675 369.669 318.817C373.749 314.594 375.919 311.825 381.749 310.311C398.829 306.019 415.409 316.334 429.659 324.303C443.409 331.989 465.699 350.182 454.219 368.046L450.589 375.012C439.869 402.888 443.479 418.48 444.519 446.896L447.939 530.228C448.409 542.958 447.659 570.983 450.919 581.792C470.679 588.766 534.509 568.019 557.359 562.947C568.869 560.393 591.219 556.972 601.929 554.191C601.879 535.886 602.659 503.336 600.949 486.193C570.859 488.75 564.329 488.502 536.129 475.304C523.099 491.183 502.759 512.252 485.739 523.805C482.509 526.598 474.309 531.831 470.319 529.484C468.649 521.944 473.919 516.458 476.149 509.544C491.409 481.267 505.269 444.599 510.979 412.512C511.999 406.798 491.819 376.544 526.699 385.982C540.839 392.235 554.659 399.852 561.759 413.754C569.439 428.794 548.619 441.647 553.449 450.823C560.869 453.655 593.759 443 602.359 439.947C602.259 432.94 601.319 425.427 601.229 418.459C600.939 395.549 600.879 388.178 586.569 369.955C586.939 367.541 587.819 361.228 588.849 359.377C597.799 343.214 629.319 358.832 639.779 363.804C636.569 351.431 622.899 325.417 614.739 315.89C604.059 303.43 596.449 298.618 588.309 283.445C584.209 288.402 580.499 293.771 576.689 299.156C559.959 322.791 539.229 345.729 514.149 360.622C507.029 364.849 482.219 378.743 474.749 376.849C471.929 372.562 481.319 362.938 484.369 359.34C512.449 326.258 566.489 246.258 567.699 204.149C551.899 210.108 534.939 217.605 517.979 210.97C507.499 206.865 484.979 193.949 479.409 182.764C478.069 180.064 479.049 178.509 479.959 176.335C484.809 170.892 506.649 172.463 515.259 170.29C573.179 155.703 631.399 142.44 689.389 128.293C701.779 125.271 709.179 128.633 719.129 135.791C735.379 147.479 757.139 161.975 762.939 182.114C764.939 193.507 749.709 205.06 747.089 213.983C732.359 264.116 723.799 329.644 678.839 362.389C671.009 368.094 661.779 368.775 652.299 369.927C653.249 370.782 655.279 372.757 656.009 373.345C671.429 385.823 661.669 396.146 658.269 411.258C657.269 415.697 657.549 421.308 657.729 426.147C666.779 422.861 675.659 418.534 683.909 415.529C695.319 411.427 707.889 411.96 718.919 417.014L719.649 417.087C741.239 423.46 759.069 441.81 729.829 454.856C709.849 463.776 673.969 466.034 656.169 476.99C656.389 498.625 657.149 523.081 656.539 544.581C673.439 539.487 683.509 539.418 700.819 536.917C714.449 534.945 729.969 528.95 742.239 522.692C758.639 524.376 800.649 539.211 810.339 553.733C816.289 562.646 815.529 564.598 814.269 574.948L813.909 577.786C805.259 584.733 799.789 587.506 788.649 585.992C750.189 580.763 714.099 577.22 675.359 582.697C671.429 583.252 664.609 583.782 660.649 583.553C658.149 585.674 657.639 585.666 657.429 589.733C655.979 617.189 658.449 649.224 656.169 676.26C653.879 684.83 654.759 702.608 653.599 712.288C650.649 737.048 650.799 763.538 643.249 787.568C640.039 797.788 633.189 835.098 619.209 833.268C610.529 827.348 610.219 804.288 607.729 793.808C607.719 791.778 607.809 791.698 608.149 789.698C602.939 754.198 602.269 716.638 600.769 680.833C600.249 668.304 604.689 603.093 600.179 595.855C591.289 591.834 546.659 607.256 535.829 610.973C516.409 617.641 505.159 628.932 483.449 620.186C469.549 614.583 460.869 610.58 449.019 600.879C451.849 612.96 450.749 627.687 451.559 640.287C454.339 683.307 459.529 731.618 426.799 765.448C398.579 791.918 384.789 741.898 372.039 731.378C354.049 716.508 343.689 700.468 328.709 685.48C323.259 688.899 320.569 704.048 311.299 708.008C285.419 705.518 292.669 597.923 289.049 578.477C283.159 575.108 270.349 583.612 263.609 584.763C251.339 586.858 241.169 579.056 231.719 572.986C229.019 581.934 226.699 597.688 225.669 606.912C219.289 663.578 197.789 720.458 150.929 755.798C146.709 758.978 139.749 763.588 133.949 762.568C131.859 760.688 131.049 759.188 132.519 756.178C158.199 703.558 172.079 651.65 181.549 594.162C189.879 545.952 194.639 497.191 195.789 448.279C196.339 425.306 197.389 403.735 192.599 380.952C191.069 373.684 183.659 352.714 188.479 347.36C200.919 342.799 218.179 361.114 225.839 369.56C249.149 351.772 254.079 350.091 281.939 341.14ZM596.039 192.702C600.539 195.722 605.179 198.831 609.009 202.476C616.819 209.911 625.379 221.773 618.819 232.608C616.919 235.752 613.729 238.187 611.789 241.332C603.519 254.258 596.829 268.381 589.379 281.612C594.869 283.64 598.709 284.922 603.769 287.836C619.409 297.206 630.629 304.97 649.599 304.384C654.489 301.391 660.149 296.971 663.059 292.004C674.039 273.246 700.079 191.147 695.679 173.303C692.179 167.892 684.719 167.679 678.899 168.271C658.419 172.415 615.959 184.203 596.039 192.702ZM333.189 415.265C348.329 416.292 363.249 415.454 373.829 428.303C380.219 436.068 379.739 443.911 371.339 450.192C358.489 459.803 345.629 463.998 335.229 477.138C335.029 489.698 335.679 505.205 334.999 517.143C354.579 507.999 366.199 512.639 384.609 523.395C386.399 524.444 388.809 527.469 389.989 528.082C391.399 534.714 392.109 537.884 389.639 544.53C368.169 559.083 355.339 556.646 332.989 563.657C332.009 588.707 333.119 613.916 332.589 638.946C332.359 649.773 330.089 662.574 329.329 673.838C345.049 681.716 396.349 712.118 397.869 676.469C399.009 667.212 398.439 644.994 398.529 634.654C398.839 599.506 398.529 564.448 396.689 529.343C395.459 505.734 397.819 475.51 395.359 452.364C395.589 438.867 394.139 360.876 389.299 352.798C384.199 348.506 377.299 347.68 371.059 348.545C354.529 350.836 318.249 359.316 305.019 367.634C317.109 370.031 326.599 377.856 333.479 388.003C334.149 389.004 334.799 390.026 335.409 391.068C335.689 400.827 335.349 405.689 333.189 415.265ZM264.549 516.868C280.269 493.651 310.189 471.53 262.859 472.529C258.729 472.617 245.549 461.94 239.629 463.411L238.989 466.494C239.539 486.547 236.859 505.564 236.049 525.54C235.859 530.354 234.089 542.337 234.709 546.361C242.099 547.405 265.009 543.113 272.299 540.731C295.429 536.172 291.809 530.199 287.969 510.247C284.099 512.541 279.909 515.624 276.159 518.236C272.219 515.175 269.589 517.466 264.549 516.868ZM288.659 433.834C289.519 423.579 294.099 379.651 275.709 376.503C275.499 376.467 273.099 376.718 272.939 376.734C267.449 379.251 257.389 378.869 251.589 377.024C245.729 375.293 236.599 371.531 231.539 374.133C230.449 379.087 235.929 387.503 237.319 392.376C241.419 406.783 241.979 438.33 240.769 452.785C248.879 449.513 283.919 437.152 288.659 433.834Z" fill="#B2301D"/>
<path d="M476.152 509.543C483.372 511.458 486.412 516.247 485.742 523.804C482.512 526.597 474.312 531.83 470.322 529.483C468.652 521.943 473.922 516.457 476.152 509.543Z" fill="#B73421"/>
<path d="M608.155 789.695C608.795 784.075 609.635 762.035 611.035 759.765L611.965 759.125C614.925 761.075 613.925 785.305 614.905 791.615C612.355 794.105 611.945 793.395 607.735 793.805C607.725 791.775 607.815 791.695 608.155 789.695Z" fill="#B73421"/>
<path d="M450.595 375.012C449.695 374.53 448.575 373.686 447.705 373.086C444.815 365.198 447.185 363.172 452.815 357.141L453.885 357.876C453.825 361.626 453.965 364.341 454.225 368.046L450.595 375.012Z" fill="#B73421"/>
<path d="M718.924 417.012L719.654 417.085C720.514 419.767 721.114 420.66 722.964 422.646C716.524 422.054 711.944 423.017 705.774 420.799L706.064 418.275L704.094 419.777L704.994 420.402L704.874 418.617C709.264 416.814 714.104 417.119 718.924 417.012Z" fill="#B73421"/>
<path d="M238.989 466.492L241.329 468.854L242.209 468.703C244.599 471.269 245.069 477.476 244.729 480.687C242.799 498.39 238.489 515.045 241.659 533.153C242.809 533.606 243.959 534.036 245.119 534.442L245.799 537.65L248.189 536.59C249.019 537.56 249.659 537.833 250.759 538.58C254.529 538.291 257.169 535.786 260.379 533.486C260.989 537.933 260.209 537.72 262.709 540.251C266.389 540.673 268.899 540.481 272.299 540.729C265.009 543.111 242.099 547.403 234.709 546.359C234.089 542.335 235.859 530.352 236.049 525.538C236.859 505.562 239.539 486.545 238.989 466.492Z" fill="#8F8C89" fill-opacity="0.0196078"/>
<path d="M395.361 452.363C397.821 475.509 395.461 505.733 396.691 529.342C398.531 564.447 398.841 599.505 398.531 634.653C398.441 644.993 399.011 667.211 397.871 676.468C392.501 660.158 400.241 550.641 393.621 542.559L389.641 544.529C392.111 537.883 391.401 534.713 389.991 528.081L394.631 530.756C395.501 508.724 393.061 473.056 395.361 452.363Z" fill="#FDFEFC" fill-opacity="0.0745098"/>
<path d="M264.555 516.865C269.595 517.463 272.225 515.172 276.165 518.233L260.385 533.485C257.175 535.785 254.535 538.29 250.765 538.579C249.665 537.832 249.025 537.559 248.195 536.589C252.505 529.972 259.225 522.879 264.555 516.865Z" fill="#B73421" fill-opacity="0.980392"/>
<path d="M251.595 377.023C249.455 369.604 248.325 375.523 246.945 369.833C249.805 368.676 272.305 369.268 275.015 371.283L276.375 370.025L277.505 370.989C275.945 375.318 275.895 370.955 272.945 376.733C267.455 379.25 257.395 378.868 251.595 377.023Z" fill="#B73421"/>
<path d="M512.344 399.594C519.014 404.223 518.944 416.642 516.024 423.146C514.844 421.552 512.714 402.698 512.344 399.594Z" fill="#B73421"/>
<path d="M606.863 616.09L609.613 617.506C611.303 622.18 612.293 627.148 609.493 631.542C607.393 631.179 607.323 630.809 605.603 629.422C604.633 625.821 606.683 623.116 606.843 617.181L606.863 616.09Z" fill="#B73421"/>
<path d="M672.752 274.085C674.952 273.867 674.822 273.775 676.792 274.724C677.882 277.908 678.462 280.294 679.242 283.572C676.402 284.269 676.512 284.155 673.912 283.164C672.092 280.636 672.672 277.345 672.752 274.085Z" fill="#B73421"/>
<path d="M578.945 591.42C582.345 590.974 585.405 590.055 588.245 591.572L588.875 594.339C585.805 594.541 582.035 595.244 579.495 593.833L578.945 591.42Z" fill="#B73421"/>
<path d="M656.172 676.258C658.452 649.222 655.982 617.187 657.432 589.731C657.642 585.664 658.152 585.672 660.652 583.551C662.662 594.457 660.852 659.221 658.472 673.534C658.392 674.032 656.712 675.748 656.172 676.258Z" fill="#FDFEFC" fill-opacity="0.0117647"/>
<path d="M8.49632 658.33L9.62431 659.134C10.5993 656.977 9.87035 657.775 11.7684 656.561C12.1854 658.621 12.0634 658.666 13.2004 660.394L14.8103 660.295L16.1973 657.331L17.6493 657.345C18.0743 659.258 17.9063 659.354 19.2303 660.734C21.7723 660.272 22.3423 659.211 24.1203 657.281L24.7793 656.554C27.0533 656.831 26.6884 657.245 28.7084 659.47L30.1423 658.84L31.8594 653.801L33.2723 653.169L35.1723 655.395L36.5193 654.463C36.0393 652.9 35.6933 651.618 35.3083 650.028L37.1763 649.66C46.8613 654.291 48.0963 655.12 58.3403 652.086C60.2003 661.712 61.5603 671.205 62.9903 680.898L61.6703 684.415C59.4003 683.881 60.2703 684.481 58.6803 683.064C53.6803 682.142 49.7914 680.991 45.2444 683.72L43.6833 688.376C40.7583 689.261 39.6884 689.3 36.6094 689.594C36.0434 692.366 36.0073 690.936 37.3783 693.946C40.5383 696.206 41.9714 696.186 45.8204 696.916C44.3074 698.896 43.7414 698.836 41.4034 699.726L38.2063 699.296L38.0013 698.516C37.7493 697.596 37.5124 696.846 37.2134 695.946L35.6933 695.726L34.2983 699.636L31.6963 699.596C30.0293 702.146 30.3974 700.716 31.1044 704.146C33.9614 707.996 40.3004 711.646 44.6714 713.986L50.3243 713.666L55.6904 713.276L57.1904 714.716C54.3404 720.036 49.5793 716.886 46.2903 718.616C45.4663 721.066 45.4063 719.886 46.5043 722.246C44.0573 721.806 43.4054 722.146 41.9504 720.716L41.5024 715.796C38.2964 713.446 31.1243 712.836 27.4903 713.356C18.1203 714.686 22.8103 710.866 18.3843 710.726C15.2503 712.576 12.8534 713.776 10.1744 716.276C5.85036 683.109 1.02032 690.859 8.49632 658.33Z" fill="#B2301D"/>
<path d="M912.895 387.391C908.255 381.592 911.315 363.118 909.545 353.518C905.415 352.49 900.725 360.098 897.665 360.644C895.105 358.317 895.275 359.196 894.785 356.446L898.065 353.424C896.375 352.307 896.195 352.374 894.245 351.898C895.615 349.505 895.285 350.817 894.815 347.748C892.105 346.494 891.115 347.407 887.645 348.233L885.905 347.029C884.355 342.927 884.715 339.205 884.695 334.772C886.125 332.903 887.165 333.257 890.115 332.531L891.645 329.103L893.095 329.125C892.885 331.2 892.615 333.269 892.295 335.33C894.315 335.645 899.865 331.292 902.255 329.739L903.695 330.148C904.975 332.81 904.705 336.191 904.755 339.23C907.945 338.135 907.535 338.575 910.275 340.088L910.655 342.49C915.195 328.082 908.455 283.932 913.055 271.367C919.555 312.614 913.445 347.955 912.895 387.391Z" fill="#B2301D"/>
<path d="M507.195 860.078C519.285 855.928 573.975 855.318 588.435 856.018C594.775 856.328 605.075 858.038 611.495 859.448C607.455 860.638 605.645 860.238 601.595 859.848C570.485 856.928 538.175 861.288 507.195 860.078Z" fill="#B2301D"/>
<path d="M912.4 831.157C905 827.437 910 823.467 905.27 816.637C900.99 813.907 899.16 816.397 895.75 814.137C895.97 811.277 896.32 811.027 897.91 808.717L899.2 810.037L900.81 809.727C903.22 804.877 899.15 797.957 902.2 794.547L904.43 795.687C905.2 804.307 907.97 802.697 910.94 810.297C913.24 816.217 912.39 824.477 912.4 831.157Z" fill="#B2301D"/>
<path d="M903.404 83.9191C900.404 86.5401 901.284 88.5861 900.844 93.7171L899.774 94.2261L898.754 92.8581C898.254 88.4871 899.644 87.5991 898.034 83.5431L896.094 86.9701C895.774 85.9551 895.744 86.4171 895.924 85.2181C897.444 75.2961 892.584 62.1721 896.174 52.6741C896.564 51.6261 899.464 51.5701 900.984 51.3281C901.364 56.4211 902.344 80.8641 903.404 83.9191Z" fill="#B2301D"/>
<path d="M176.953 8.67661C182.353 7.65661 210.833 4.57564 215.523 4.63764C212.683 6.76564 211.643 6.98661 208.183 7.85361L207.183 9.55161L209.143 13.4566C208.303 15.9356 209.103 15.2096 207.183 16.1686L205.303 11.1876L204.233 11.8856C203.573 17.6276 206.283 14.4156 203.923 16.5586C201.793 16.4196 200.623 17.6966 198.263 16.7876C196.713 16.1916 194.293 16.0856 192.593 15.9406L192.403 13.6446C193.523 13.0826 194.123 12.7616 195.173 12.1506L194.593 10.9366C191.243 9.82362 182.013 9.52461 176.953 8.67661Z" fill="#C23B2A"/>
<path d="M63.8253 798.198C49.8283 790.918 55.7953 785.878 55.6953 770.928C57.0953 768.768 58.1353 768.798 60.8153 767.398C60.4253 775.268 63.2953 788.728 63.8253 798.198Z" fill="#B2301D"/>
<path d="M14.4609 166.538L17.5189 166.351L19.8779 162.401L21.6489 162.062C25.5639 166.396 21.2419 167.47 24.8779 167.67L27.5139 165.393C30.5779 166.254 29.5289 165.81 31.8789 168.686L31.8329 171.059C28.7709 173.41 30.2539 172.889 26.3999 173.187C24.4409 172.147 22.5079 171.092 20.5009 170.148C14.5499 173.261 21.1809 192.654 16.6469 200.335C17.0859 189.427 17.9759 176.88 14.4609 166.538Z" fill="#B2301D"/>
<path d="M192.593 15.9414C194.293 16.0864 196.713 16.1924 198.263 16.7884C200.623 17.6974 201.793 16.4204 203.923 16.5594C204.323 18.4994 203.593 19.8964 202.933 21.8184C197.883 24.6954 195.123 22.4044 191.883 18.3184L192.593 15.9414Z" fill="#B2301D"/>
<path d="M8.88705 532.531C12.021 535.396 14.7031 532.95 18.0821 533.379C18.6081 536.463 18.6811 536.979 20.9191 539.165C20.6881 540.523 19.0611 544.581 18.9961 544.376C20.9771 550.584 21.0581 547.712 19.5171 553.769L15.864 554.266C13.797 556.132 13.563 556.528 10.801 557.283C5.98505 553.276 5.26205 537.377 8.88705 532.531Z" fill="#B2301D"/>
<path d="M250.312 16.1367C254.213 18.0287 251.643 19.4617 255.253 20.8507C256.203 17.6877 255.493 18.2267 257.673 16.9507L258.503 20.5487C264.543 25.9907 267.493 20.1187 272.923 23.1387C274.313 27.3047 273.573 27.1737 272.473 31.9117C273.173 33.8137 273.033 33.0417 272.793 35.1347C268.763 35.0757 267.413 36.0427 265.153 38.8277L263.283 38.5967L264.383 36.4117C262.473 34.2017 260.673 30.8107 258.983 28.9987C253.223 22.8207 251.913 24.9417 250.312 16.1367Z" fill="#B2301D"/>
<path d="M806.995 864.387C808.575 865.077 809.325 865.667 810.755 866.607C812.005 872.477 815.065 876.177 810.395 880.507C807.385 881.237 808.415 881.057 804.865 879.247L805.085 877.577L804.005 876.847C800.995 879.407 804.425 875.117 797.195 875.117L797.445 873.567C799.935 872.757 801.815 872.427 804.385 871.917C807.405 869.167 806.515 869.317 806.995 864.387Z" fill="#B2301D"/>
<path d="M753.391 897.788L756.441 897.108L757.281 895.198L756.151 895.018L758.861 893.328L759.981 893.698C761.001 897.288 760.671 897.688 760.201 901.458C759.891 904.098 759.551 906.738 759.191 909.378C755.871 907.818 754.291 907.288 753.031 904.048C753.931 901.188 753.941 900.748 753.391 897.788Z" fill="#C23B2A"/>
<path d="M23.2317 334.078C25.6317 334.426 26.2197 335.065 28.1867 336.442L28.8717 336.928L28.8277 335.942L30.9697 338.55C30.7147 341.399 31.2347 341.211 29.6437 342.702L28.0507 341.556C24.5477 343.43 23.9767 343.783 20.3417 342.435L19.4297 340.005C20.8387 335.557 19.8117 337.105 23.2317 334.078Z" fill="#B2301D"/>
<path d="M50.716 299.402C56.361 302.943 54.1211 322.806 52.0611 328.548C50.7931 320.146 51.0851 311.159 49.3761 302.819C49.0291 301.128 49.316 301.74 50.716 299.402Z" fill="#C23B2A"/>
<path d="M50.212 472.258L50.7289 472.615C51.0379 478.472 57.759 492.337 52.829 498.687L52.189 498.515C52.589 493.504 48.451 482.097 50.212 472.258Z" fill="#C23B2A"/>
<path d="M53.4593 405.547L54.4893 407.124C54.7093 412.937 55.1693 427.761 51.5993 431.938C50.2743 427.888 50.7273 409.576 53.4593 405.547Z" fill="#C23B2A"/>
<path d="M31.8737 553.181L32.6077 553.012C34.3107 555.881 38.1397 557.842 40.7177 560.052C41.1537 560.426 42.2376 558.838 45.0496 559.871L45.1036 562.848C36.6946 558.26 37.4996 564.064 31.0156 554.48L31.8737 553.181Z" fill="#C23B2A"/>
<path d="M127.994 878.516L129.194 879.996C127.004 886.396 129.114 882.526 128.034 886.786L126.664 886.626L125.094 884.266C125.314 880.606 125.084 881.886 127.994 878.516Z" fill="#C23B2A"/>
<path d="M15.7578 717.657C16.9068 717.157 19.1508 717.467 20.1998 718.237C20.2568 720.897 20.4188 722.737 20.7088 725.397L19.0618 724.537C18.0638 722.817 17.9168 722.547 17.4418 720.687L17.0848 719.247L16.0168 719.387L15.7578 717.657Z" fill="#C23B2A"/>
</svg>
